<svg xmlns="http://www.w3.org/2000/svg" viewBox="0 0 1200 630" width="1200" height="630">
  <defs>
    <pattern id="board" x="0" y="0" width="160" height="160" patternUnits="userSpaceOnUse">
      <rect width="80" height="80" fill="#ebecd0"/>
      <rect x="80" width="80" height="80" fill="#779556"/>
      <rect y="80" width="80" height="80" fill="#779556"/>
      <rect x="80" y="80" width="80" height="80" fill="#ebecd0"/>
    </pattern>
    <linearGradient id="fade" x1="0%" y1="0%" x2="100%" y2="0%">
      <stop offset="0%" stop-color="#302e2b" stop-opacity="0"/>
      <stop offset="100%" stop-color="#302e2b" stop-opacity="0.9"/>
    </linearGradient>
  </defs>
  <rect width="1200" height="630" fill="#302e2b"/>
  <rect x="680" y="0" width="520" height="630" fill="url(#board)" opacity="0.22"/>
  <rect x="680" y="0" width="520" height="630" fill="url(#fade)"/>

  <g transform="translate(70, 110)">
    <g transform="scale(4.2)"><g fill="#fff" stroke="#222" stroke-width="1.5" stroke-linecap="round" stroke-linejoin="round"><path d="M22.5 11.63V6M20 8h5"/><path d="M22.5 25s4.5-7.5 3-10.5c0 0-1-2.5-3-2.5s-3 2.5-3 2.5c-1.5 3 3 10.5 3 10.5" fill="#fff" stroke="#222" stroke-linecap="butt"/><path d="M11.5 37c5.5 3.5 15.5 3.5 21 0v-7s9-4.5 6-10.5c-4-6.5-13.5-3.5-16 4V27v-3.5c-3.5-7.5-13-10.5-16-4-3 6 5 10 5 10V37z" fill="#fff"/><path d="M11.5 30c5.5-3 15.5-3 21 0M11.5 33.5c5.5-3 15.5-3 21 0M11.5 37c5.5-3 15.5-3 21 0"/></g></g>
  </g>

  <g font-family="-apple-system, system-ui, 'Segoe UI', sans-serif" fill="#e8e6e1">
    <text x="290" y="200" font-size="28" font-weight="500" fill="#81b64c" font-family="monospace" letter-spacing="3">CHESS MATE</text>
    <text x="290" y="300" font-size="78" font-weight="700" letter-spacing="-1">Analyze Any</text>
    <text x="290" y="380" font-size="78" font-weight="700" letter-spacing="-1">Chess Position.</text>
    <text x="290" y="440" font-size="32" font-weight="400" fill="#bbb">Free move analyzer &amp; learning companion.</text>
    <text x="290" y="485" font-size="32" font-weight="400" fill="#bbb">No signup. No ads. Runs in your browser.</text>

    <g transform="translate(290, 530)">
      <rect width="330" height="60" rx="6" fill="#81b64c"/>
      <text x="165" y="40" font-size="26" font-weight="700" fill="#302e2b" text-anchor="middle" letter-spacing="0.5">Start Analyzing →</text>
    </g>
    <text x="640" y="568" font-size="20" font-weight="500" fill="#7b7b7b" font-family="monospace">stultus.in/chess-mate</text>
  </g>
</svg>
